<?xml version="1.0" encoding="iso-8859-1"?>
<!-- Generator: Adobe Illustrator 17.1.0, SVG Export Plug-In . SVG Version: 6.00 Build 0)  -->
<!DOCTYPE svg PUBLIC "-//W3C//DTD SVG 1.1//EN" "http://www.w3.org/Graphics/SVG/1.1/DTD/svg11.dtd">
<svg version="1.1" id="Capa_1" xmlns="http://www.w3.org/2000/svg" xmlns:xlink="http://www.w3.org/1999/xlink" x="0px" y="0px"
	 viewBox="0 0 312 312" style="enable-background:new 0 0 312 312;" xml:space="preserve">
<path d="M163.167,265.5v39c0,4.143-3.357,7.5-7.5,7.5s-7.5-3.357-7.5-7.5v-39c0-4.143,3.357-7.5,7.5-7.5
	S163.167,261.357,163.167,265.5z M155.667,0c-4.143,0-7.5,3.357-7.5,7.5v37c0,4.143,3.357,7.5,7.5,7.5s7.5-3.357,7.5-7.5v-37
	C163.167,3.357,159.81,0,155.667,0z M53,155c0-4.143-3.357-7.5-7.5-7.5h-37c-4.143,0-7.5,3.357-7.5,7.5s3.357,7.5,7.5,7.5h37
	C49.643,162.5,53,159.143,53,155z M303.5,147.5h-37c-4.143,0-7.5,3.357-7.5,7.5s3.357,7.5,7.5,7.5h37c4.143,0,7.5-3.357,7.5-7.5
	S307.643,147.5,303.5,147.5z M73.138,228.563l-26.26,26.26c-2.929,2.93-2.929,7.678,0,10.607c1.465,1.464,3.385,2.196,5.304,2.196
	s3.839-0.732,5.304-2.196l26.26-26.26c2.929-2.93,2.929-7.678,0-10.607C80.815,225.636,76.067,225.636,73.138,228.563z
	 M235.205,84.604c1.919,0,3.839-0.732,5.304-2.196l26.26-26.26c2.929-2.93,2.929-7.678,0-10.607c-2.93-2.928-7.678-2.928-10.607,0
	l-26.26,26.26c-2.929,2.93-2.929,7.678,0,10.607C231.366,83.871,233.286,84.604,235.205,84.604z M57.485,45.54
	c-2.93-2.928-7.678-2.928-10.607,0c-2.929,2.93-2.929,7.678,0,10.607l26.26,26.26c1.465,1.464,3.385,2.196,5.304,2.196
	s3.839-0.732,5.304-2.196c2.929-2.93,2.929-7.678,0-10.607L57.485,45.54z M240.509,228.563c-2.93-2.928-7.678-2.928-10.607,0
	c-2.929,2.93-2.929,7.678,0,10.607l26.26,26.26c1.465,1.464,3.385,2.196,5.304,2.196s3.839-0.732,5.304-2.196
	c2.929-2.93,2.929-7.678,0-10.607L240.509,228.563z M246.097,154.923c0,49.226-40.048,89.273-89.273,89.273
	s-89.274-40.048-89.274-89.273c0-49.227,40.049-89.274,89.274-89.274S246.097,105.696,246.097,154.923z M155.167,80.671
	c-40,0.485-73.374,33.533-73.374,74.251s33.374,73.766,73.374,74.251V80.671z"/>
<g>
</g>
<g>
</g>
<g>
</g>
<g>
</g>
<g>
</g>
<g>
</g>
<g>
</g>
<g>
</g>
<g>
</g>
<g>
</g>
<g>
</g>
<g>
</g>
<g>
</g>
<g>
</g>
<g>
</g>
</svg>
