<?xml version="1.0" encoding="UTF-8" standalone="no"?>
<!-- Created with Inkscape (http://www.inkscape.org/) -->

<svg
   xmlns:dc="http://purl.org/dc/elements/1.1/"
   xmlns:cc="http://creativecommons.org/ns#"
   xmlns:rdf="http://www.w3.org/1999/02/22-rdf-syntax-ns#"
   xmlns:svg="http://www.w3.org/2000/svg"
   xmlns="http://www.w3.org/2000/svg"
   xmlns:sodipodi="http://sodipodi.sourceforge.net/DTD/sodipodi-0.dtd"
   xmlns:inkscape="http://www.inkscape.org/namespaces/inkscape"
   width="10.546404in"
   height="1.0711217in"
   viewBox="0 0 267.87866 27.206491"
   version="1.1"
   id="svg8"
   sodipodi:docname="logo-text.svg"
   inkscape:version="0.92.5 (2060ec1f9f, 2020-04-08)">
  <defs
     id="defs2" />
  <sodipodi:namedview
     id="base"
     pagecolor="#ffffff"
     bordercolor="#666666"
     borderopacity="1.0"
     inkscape:pageopacity="0.0"
     inkscape:pageshadow="2"
     inkscape:zoom="0.98994949"
     inkscape:cx="36.313526"
     inkscape:cy="-536.4779"
     inkscape:document-units="mm"
     inkscape:current-layer="layer1"
     showgrid="false"
     units="in"
     width="11.5in"
     inkscape:window-width="3840"
     inkscape:window-height="2123"
     inkscape:window-x="0"
     inkscape:window-y="37"
     inkscape:window-maximized="0"
     fit-margin-top="0"
     fit-margin-left="0"
     fit-margin-right="0"
     fit-margin-bottom="0" />
  <metadata
     id="metadata5">
    <rdf:RDF>
      <cc:Work
         rdf:about="">
        <dc:format>image/svg+xml</dc:format>
        <dc:type
           rdf:resource="http://purl.org/dc/dcmitype/StillImage" />
        <dc:title></dc:title>
      </cc:Work>
    </rdf:RDF>
  </metadata>
  <g
     inkscape:label="Layer 1"
     inkscape:groupmode="layer"
     id="layer1"
     transform="translate(-11.934066,-22.007787)">
    <path
       style="font-style:normal;font-variant:normal;font-weight:normal;font-stretch:normal;font-size:27.20648956px;line-height:1.25;font-family:'Galiver Sans';-inkscape-font-specification:'Galiver Sans';letter-spacing:0px;word-spacing:0px;fill:#434c5e;fill-opacity:1;stroke:none;stroke-width:2.57069206"
       d="M 0 0 L 0 79.097656 L 59.324219 79.097656 L 59.324219 0 L 0 0 z M 292.66211 0 L 292.66211 23.728516 L 249.1582 23.728516 L 249.1582 79.097656 L 304.52734 79.097656 L 304.52734 0 L 292.66211 0 z M 312.4375 0 L 312.4375 11.865234 L 324.30273 11.865234 L 324.30273 0 L 312.4375 0 z M 494.36328 0 L 494.36328 79.097656 L 553.68555 79.097656 L 553.68555 0 L 494.36328 0 z M 719.79102 0 L 719.79102 79.097656 L 767.25 79.097656 L 767.25 67.234375 L 731.65625 67.234375 L 731.65625 39.548828 L 767.25 39.548828 L 767.25 27.683594 L 731.65625 27.683594 L 731.65625 11.865234 L 767.25 11.865234 L 767.25 0 L 719.79102 0 z M 818.66406 0 L 818.66406 23.728516 L 775.16016 23.728516 L 775.16016 79.097656 L 830.5293 79.097656 L 830.5293 0 L 818.66406 0 z M 838.43945 0 L 838.43945 11.865234 L 850.30273 11.865234 L 850.30273 0 L 838.43945 0 z M 877.98828 0 L 866.12305 15.820312 L 866.12305 23.728516 L 858.21289 23.728516 L 858.21289 35.59375 L 866.12305 35.59375 L 866.12305 79.097656 L 893.80664 79.097656 L 893.80664 67.234375 L 877.98828 67.234375 L 877.98828 35.59375 L 893.80664 35.59375 L 893.80664 23.728516 L 877.98828 23.728516 L 877.98828 0 z M 11.865234 11.865234 L 47.458984 11.865234 L 47.458984 33.617188 L 11.865234 33.617188 L 11.865234 11.865234 z M 506.22656 11.865234 L 541.82227 11.865234 L 541.82227 33.617188 L 506.22656 33.617188 L 506.22656 11.865234 z M 94.996094 23.728516 C 87.297201 23.728516 80.732192 26.418197 75.300781 31.796875 C 69.922103 37.175553 67.232422 43.687824 67.232422 51.333984 C 67.232422 58.980145 69.922103 65.519761 75.300781 70.951172 C 80.732192 76.382582 87.297201 79.097656 94.996094 79.097656 C 102.64225 79.097656 109.15452 76.382582 114.5332 70.951172 C 119.91188 65.519761 122.60156 58.980145 122.60156 51.333984 C 122.60156 43.687824 119.91188 37.175553 114.5332 31.796875 C 109.15452 26.418197 102.64225 23.728516 94.996094 23.728516 z M 130.51172 23.728516 L 130.51172 75.142578 C 130.51172 76.249955 130.88089 77.199252 131.61914 77.990234 C 132.41012 78.728484 133.35942 79.097656 134.4668 79.097656 L 181.92578 79.097656 L 181.92578 23.728516 L 170.06055 23.728516 L 170.06055 67.234375 L 142.37695 67.234375 L 142.37695 23.728516 L 130.51172 23.728516 z M 189.83594 23.728516 L 189.83594 79.097656 L 201.69922 79.097656 L 201.69922 35.59375 L 229.38477 35.59375 L 229.38477 79.097656 L 241.25 79.097656 L 241.25 27.683594 C 241.25 26.57622 240.85348 25.654266 240.0625 24.916016 C 239.32425 24.125034 238.4023 23.728516 237.29492 23.728516 L 189.83594 23.728516 z M 312.4375 23.728516 L 312.4375 79.097656 L 324.30273 79.097656 L 324.30273 23.728516 L 312.4375 23.728516 z M 332.21094 23.728516 L 332.21094 79.097656 L 344.07617 79.097656 L 344.07617 35.59375 L 371.75977 35.59375 L 371.75977 79.097656 L 383.625 79.097656 L 383.625 27.683594 C 383.625 26.57622 383.23043 25.654266 382.43945 24.916016 C 381.70121 24.125034 380.7773 23.728516 379.66992 23.728516 L 332.21094 23.728516 z M 395.49023 23.728516 C 394.38286 23.728516 393.43356 24.125034 392.64258 24.916016 C 391.90431 25.706998 391.53516 26.628952 391.53516 27.683594 L 391.53516 75.142578 C 391.53516 76.249955 391.90431 77.199252 392.64258 77.990234 C 393.43356 78.728484 394.38286 79.097656 395.49023 79.097656 L 435.03906 79.097656 L 435.03906 90.962891 L 391.53516 90.962891 L 391.53516 102.82812 L 442.94922 102.82812 C 444.0566 102.82812 444.97855 102.43161 445.7168 101.64062 C 446.50778 100.90237 446.9043 99.980423 446.9043 98.873047 L 446.9043 23.728516 L 395.49023 23.728516 z M 589.35938 23.728516 C 581.66048 23.728516 575.09547 26.418197 569.66406 31.796875 C 564.28539 37.175553 561.5957 43.687824 561.5957 51.333984 C 561.5957 58.980145 564.28539 65.519761 569.66406 70.951172 C 575.09547 76.382582 581.66048 79.097656 589.35938 79.097656 C 597.00554 79.097656 603.51781 76.382582 608.89648 70.951172 C 614.27518 65.519761 616.96484 58.980145 616.96484 51.333984 C 616.96484 43.687824 614.27518 37.175553 608.89648 31.796875 C 603.51781 26.418197 597.00554 23.728516 589.35938 23.728516 z M 620.91992 23.728516 L 641.08984 51.414062 L 620.91992 79.097656 L 636.18555 79.097656 L 648.76172 61.855469 L 661.25977 79.097656 L 676.52539 79.097656 L 656.35547 51.414062 L 676.52539 23.728516 L 661.17969 23.728516 L 648.76172 40.894531 L 636.26367 23.728516 L 620.91992 23.728516 z M 838.43945 23.728516 L 838.43945 79.097656 L 850.30273 79.097656 L 850.30273 23.728516 L 838.43945 23.728516 z M 929.48047 23.728516 C 921.78157 23.728516 915.21656 26.418197 909.78516 31.796875 C 904.40649 37.175553 901.7168 43.687824 901.7168 51.333984 C 901.7168 58.980145 904.40649 65.519761 909.78516 70.951172 C 915.21656 76.382582 921.78157 79.097656 929.48047 79.097656 C 937.12663 79.097656 943.63891 76.382582 949.01758 70.951172 C 954.39627 65.519761 957.08594 58.980145 957.08594 51.333984 C 957.08594 43.687824 954.39627 37.175553 949.01758 31.796875 C 943.63891 26.418197 937.12663 23.728516 929.48047 23.728516 z M 964.99609 23.728516 L 964.99609 79.097656 L 976.86133 79.097656 L 976.86133 35.59375 L 1000.5898 35.59375 L 1000.5898 51.414062 L 1012.4551 51.414062 L 1012.4551 27.683594 C 1012.4551 26.57622 1012.0586 25.654266 1011.2676 24.916016 C 1010.5293 24.125034 1009.6074 23.728516 1008.5 23.728516 L 964.99609 23.728516 z M 94.917969 35.59375 C 99.294737 35.59375 103.01185 37.123176 106.07031 40.181641 C 109.18151 43.240105 110.73828 46.984562 110.73828 51.414062 C 110.73828 55.790828 109.18151 59.535286 106.07031 62.646484 C 103.01185 65.704949 99.294737 67.234375 94.917969 67.234375 C 90.5412 67.234375 86.796743 65.704949 83.685547 62.646484 C 80.627083 59.535286 79.097656 55.790828 79.097656 51.414062 C 79.097656 46.984562 80.627083 43.240105 83.685547 40.181641 C 86.796743 37.123176 90.5412 35.59375 94.917969 35.59375 z M 261.02344 35.59375 L 292.66211 35.59375 L 292.66211 67.234375 L 261.02344 67.234375 L 261.02344 35.59375 z M 403.40039 35.59375 L 435.03906 35.59375 L 435.03906 67.234375 L 403.40039 67.234375 L 403.40039 35.59375 z M 589.28125 35.59375 C 593.65802 35.59375 597.37512 37.123176 600.43359 40.181641 C 603.5448 43.240105 605.09961 46.984562 605.09961 51.414062 C 605.09961 55.790828 603.5448 59.535286 600.43359 62.646484 C 597.37512 65.704949 593.65802 67.234375 589.28125 67.234375 C 584.90448 67.234375 581.16001 65.704949 578.04883 62.646484 C 574.99036 59.535286 573.46094 55.790828 573.46094 51.414062 C 573.46094 46.984562 574.99036 43.240105 578.04883 40.181641 C 581.16001 37.123176 584.90448 35.59375 589.28125 35.59375 z M 787.02539 35.59375 L 818.66406 35.59375 L 818.66406 67.234375 L 787.02539 67.234375 L 787.02539 35.59375 z M 929.40234 35.59375 C 933.77911 35.59375 937.49622 37.123176 940.55469 40.181641 C 943.66589 43.240105 945.2207 46.984562 945.2207 51.414062 C 945.2207 55.790828 943.66589 59.535286 940.55469 62.646484 C 937.49622 65.704949 933.77911 67.234375 929.40234 67.234375 C 925.02558 67.234375 921.2811 65.704949 918.16992 62.646484 C 915.11145 59.535286 913.58203 55.790828 913.58203 51.414062 C 913.58203 46.984562 915.11145 43.240105 918.16992 40.181641 C 921.2811 37.123176 925.02558 35.59375 929.40234 35.59375 z M 11.865234 45.482422 L 47.458984 45.482422 L 47.458984 67.234375 L 11.865234 67.234375 L 11.865234 45.482422 z M 506.22656 45.482422 L 541.82227 45.482422 L 541.82227 67.234375 L 506.22656 67.234375 L 506.22656 45.482422 z "
       transform="matrix(0.26458333,0,0,0.26458333,11.934066,22.007787)"
       id="path985" />
  </g>
</svg>
